<svg id="MPR_logo_Image" data-name="MPR_logo Image" xmlns="http://www.w3.org/2000/svg" viewBox="0 0 387 86.52"><defs><style>.cls-1{fill:#fdfdfd;}.cls-1,.cls-2,.cls-3,.cls-4{fill-rule:evenodd;}.cls-2{fill:#010101;}.cls-3{fill:#00853f;}.cls-4{fill:#fff;}</style></defs><title>MPR logo</title><path class="cls-1" d="M193.62.12h193c.45,0,.55.1.55.55q0,42.72,0,85.44c0,.45-.1.55-.55.55q-193,0-385.92,0c-.45,0-.55-.1-.55-.55Q.13,43.38.11.66C.11.21.21.11.66.11Z"/><path class="cls-2" d="M161.88,38.63c1-1.94,1.85-3.77,2.76-5.6l9.81-19.76q2.19-4.42,4.35-8.87a.69.69,0,0,1,.72-.45H207.3c.36,0,.52.06.51.48q0,4,0,7.92c0,.39-.1.5-.5.5-2.06,0-4.12,0-6.18,0-.4,0-.52,0-.43.52.17,1,.2,1.93.3,2.9l.45,4.32.27,2.84.45,4.38.39,4L203,36.2l.39,4,.45,4.37c.1,1,.17,1.94.27,2.91.14,1.41.3,2.83.44,4.25.1,1,.18,1.9.28,2.85l.45,4.37c.13,1.36.25,2.73.39,4.09l.45,4.39c.09.87.21,1.73.25,2.61,0,.33.13.38.42.38,1.6,0,3.2,0,4.8,0,.42,0,.58.06.57.54,0,2.62,0,5.24,0,7.86,0,.37-.07.5-.48.5q-19,0-37.92,0c-.37,0-.5-.07-.5-.48q0-4,0-7.92c0-.46.17-.5.55-.5,2.15,0,4.31,0,6.48,0-.14-1.76-.27-3.5-.42-5.23-.18-2-.4-4-.58-6-.15-1.59-.24-3.17-.38-4.76s-.31-3.08-.45-4.62-.25-3.09-.39-4.63-.31-3.16-.45-4.74c-.1-1.11-.17-2.22-.28-3.33,0-.19.16-.47-.17-.54s-.34.24-.45.43q-3.47,6.3-6.48,12.84a122,122,0,0,0-7.63,21.4,68.06,68.06,0,0,0-1.47,7.5c-.05.36-.17.56-.63.56-4.06,0-8.12,0-12.18,0-.29,0-.46,0-.53-.4-.39-2.37-.83-4.75-1.41-7.09a118.43,118.43,0,0,0-4.67-14.55c-2-5.18-4.3-10.24-6.74-15.23-.86-1.76-1.74-3.5-2.61-5.26-.06-.12-.15-.23-.2-.36s-.21-.2-.38-.19-.19.17-.21.3c-.07.49-.13,1-.19,1.47-.2,1.71-.4,3.42-.59,5.13-.13,1.24-.24,2.49-.37,3.73s-.3,2.48-.45,3.72l-.39,3.61c-.15,1.31-.32,2.63-.46,3.95s-.25,2.48-.38,3.72-.32,2.56-.46,3.84-.27,2.48-.37,3.72c0,.33-.33.75-.05.94s.69.07,1.05.07c1.74,0,3.48,0,5.22,0,.37,0,.5.07.5.48q0,4,0,7.92c0,.38-.09.5-.49.5q-11.88,0-23.76,0c-.38,0-.49-.09-.49-.49q0-4,0-7.92c0-.39.1-.5.49-.49,1.46,0,2.92,0,4.38,0,.4,0,.51-.15.55-.51.22-1.91.47-3.81.7-5.71.18-1.46.32-2.91.49-4.37s.4-2.94.58-4.41.33-2.91.5-4.36.38-2.94.56-4.41c.14-1.12.27-2.24.4-3.36.18-1.49.37-3,.56-4.48.13-1.12.27-2.24.4-3.36.18-1.48.35-2.95.53-4.42.14-1.12.29-2.24.43-3.36.2-1.53.39-3.06.58-4.59.13-1.08.25-2.17.38-3.25l.57-4.59c.09-.7.17-1.41.27-2.12,0-.36-.18-.31-.4-.31-1.86,0-3.72,0-5.58,0-.48,0-.64-.07-.63-.6,0-2.6,0-5.2,0-7.8,0-.36.06-.5.48-.5h29.58a.53.53,0,0,1,.59.34q3.8,8.43,7.64,16.83C156.58,26.92,159.2,32.72,161.88,38.63Z"/><path class="cls-2" d="M308.4,41.58q0-14.07,0-28.13c0-.48-.08-.65-.6-.63-1.4,0-2.8,0-4.2,0-.46,0-.63-.1-.62-.6q0-3.87,0-7.74c0-.44.1-.55.55-.55,4,0,8,0,12,0,9.94,0,19.88,0,29.82,0a45.24,45.24,0,0,1,5.18.44A59.8,59.8,0,0,1,358.94,6a37.33,37.33,0,0,1,13.44,6.22,20.37,20.37,0,0,1,6.33,7.8,19.81,19.81,0,0,1,1.71,6.25,24.09,24.09,0,0,1,.08,4.57,18.39,18.39,0,0,1-1.39,5.44,21.6,21.6,0,0,1-4.9,7.11,26.23,26.23,0,0,1-10.16,6.16c-.4.14-.57.21-.24.69,3.43,4.93,6.81,9.88,10.21,14.83,1.11,1.61,2.24,3.22,3.33,4.84a.83.83,0,0,0,.78.41c1.5,0,3,0,4.5,0,.39,0,.55,0,.54.5q0,4,0,8c0,.43-.12.53-.54.53H352.51a.72.72,0,0,1-.75-.51q-2-4.56-4.07-9.1c-1.67-3.74-3.33-7.48-5-11.22-.65-1.46-1.34-2.9-2-4.35a.52.52,0,0,0-.55-.39q-2,0-4,0c-.33,0-.43.08-.43.43,0,5.24,0,10.48,0,15.72,0,.41.17.43.49.43,1.68,0,3.36,0,5,0,.39,0,.49.1.49.49q0,4,0,8c0,.41-.09.54-.53.54H303.09c-.46,0-.58-.15-.57-.59q0-4,0-7.92c0-.45.16-.5.55-.5,1.58,0,3.16,0,4.74,0,.5,0,.61-.11.61-.61Q308.4,55.65,308.4,41.58Z"/><path class="cls-2" d="M228.36,41.5q0-14.07,0-28.14c0-.49-.07-.67-.63-.66-1.6.05-3.2,0-4.8,0-.35,0-.47-.07-.47-.45q0-4,0-7.92c0-.31.07-.45.4-.4a1.92,1.92,0,0,0,.24,0Q244,4,265,4a51.68,51.68,0,0,1,6.45.57A57.34,57.34,0,0,1,282.77,7.2,32.48,32.48,0,0,1,293,12.79a20,20,0,0,1,7.11,11.72,23.51,23.51,0,0,1,.46,5.85,20.2,20.2,0,0,1-4.4,11.89A26.4,26.4,0,0,1,287.8,49a51.78,51.78,0,0,1-13.68,4.7c-2.31.48-4.63.88-7,1.15-2.11.26-4.23.41-6.35.54-1.57.11-3.14,0-4.71.17-.36,0-.4.16-.4.46q0,7,0,13.92c0,.35.1.43.43.43,1.7,0,3.4,0,5.1,0,.44,0,.61.07.61.57q0,3.9,0,7.8c0,.52-.18.62-.66.62h-38c-.52,0-.68-.13-.67-.66,0-2.6,0-5.2,0-7.8,0-.41.08-.54.52-.53,1.59,0,3.19,0,4.79,0,.46,0,.59-.1.59-.58Q228.36,55.64,228.36,41.5Z"/><path class="cls-3" d="M9.87,79.63,55.7,10.74q21,34.47,42,68.89Z"/><path class="cls-3" d="M5.81,74.45v-.6q0-34.17,0-68.33c0-.61.16-.73.75-.73H51.65c.15,0,.34-.09.43.1s-.09.29-.17.41q-2.4,3.63-4.81,7.24L20.3,52.84,6.23,74C6.13,74.14,6.08,74.35,5.81,74.45Z"/><path class="cls-3" d="M59.28,4.8h42.59c.48,0,.62.08.62.6q0,34.77,0,69.54v.47l-.1,0Z"/><path class="cls-4" d="M335.76,29.15V13.32c0-.65.08-.73.71-.56a9.91,9.91,0,0,0,1.72.08,21.1,21.1,0,0,1,7.86,1.86A12,12,0,0,1,352.56,23a25.13,25.13,0,0,1,.58,8.24,16.11,16.11,0,0,1-2.88,8.39A13.37,13.37,0,0,1,345,43.93a20.15,20.15,0,0,1-5.36,1.53c-1,.17-2.13.16-3.19.27-.49,0-.66-.07-.66-.63C335.77,39.79,335.76,34.47,335.76,29.15Z"/><path class="cls-4" d="M255.6,29.22c0-5.3,0-10.6,0-15.9,0-.58.21-.68.67-.59,1.07.19,2.15.09,3.21.22,3.68.45,7.15,1.4,9.87,4.1a12.73,12.73,0,0,1,3.31,6.32,24.34,24.34,0,0,1,.58,6.91,16.92,16.92,0,0,1-3.12,9.58,14.27,14.27,0,0,1-7.37,5,23.68,23.68,0,0,1-6.59,1c-.44,0-.55-.09-.55-.55C255.61,39.94,255.6,34.58,255.6,29.22Z"/></svg>